<?xml version="1.0" standalone="no"?>
<svg version="1.0" xmlns="http://www.w3.org/2000/svg"
 width="1152.000000pt" height="160.000000pt" viewBox="0 0 1152.000000 160.000000"
 preserveAspectRatio="xMidYMid meet">
<g transform="translate(0.000000,160.000000) scale(0.100000,-0.100000)"
fill="#000000" stroke="none">
<path d="M7844 1558 c-38 -58 -112 -236 -164 -388 -46 -137 -74 -183 -181
-289 -66 -67 -135 -118 -145 -108 -8 8 30 69 77 123 62 71 27 116 -43 56 -79
-68 -208 -140 -288 -162 -64 -17 -144 -14 -193 8 -38 17 -67 45 -157 153 l-25
31 -72 -41 c-40 -23 -103 -61 -140 -85 -106 -68 -193 -107 -193 -87 0 5 23 43
50 85 54 83 61 111 30 121 -14 5 -40 -12 -102 -64 -180 -154 -271 -176 -424
-102 -47 23 -95 41 -106 41 -11 0 -38 -13 -61 -28 -64 -44 -71 -47 -62 -31 24
39 73 92 102 110 25 16 33 28 33 50 0 37 -26 39 -94 4 -53 -27 -90 -31 -148
-15 -35 10 -41 8 -135 -53 -54 -35 -119 -76 -144 -91 l-47 -27 -31 78 c-18 43
-36 88 -41 101 -11 26 -55 30 -64 5 -8 -21 81 -210 108 -228 25 -18 50 -8 201
86 117 73 119 74 179 70 34 -1 63 -5 65 -6 2 -2 -6 -16 -17 -32 -31 -45 -46
-101 -32 -118 19 -23 41 -18 119 21 l71 37 58 -26 c32 -15 90 -32 129 -39 90
-15 155 -2 245 51 l65 38 -10 -33 c-16 -51 3 -67 74 -62 58 4 67 9 291 147 37
22 73 41 80 41 7 0 26 -21 42 -46 52 -82 151 -134 256 -134 60 0 149 24 227
60 l62 28 3 -41 c3 -35 7 -43 30 -51 49 -17 100 8 191 94 l84 80 -14 -62 c-8
-34 -12 -72 -8 -85 11 -44 88 -27 299 65 l90 39 20 -41 c31 -60 95 -89 212
-94 134 -6 262 35 436 140 95 56 99 58 140 48 52 -12 227 -12 286 -1 23 5 42
6 42 4 0 -2 -8 -20 -19 -41 -30 -60 -35 -99 -16 -129 16 -23 21 -25 78 -21 52
3 95 19 266 96 216 98 269 115 347 110 l49 -3 -67 -54 -68 -55 0 -91 c0 -161
-52 -314 -155 -452 -75 -102 -140 -225 -132 -247 4 -9 18 -16 32 -16 28 0 70
58 158 218 86 155 301 390 497 541 l76 59 27 -33 c39 -48 117 -75 221 -75 91
0 151 14 273 67 l83 35 25 -31 c65 -76 238 -94 396 -41 105 35 166 65 272 133
68 43 78 53 75 76 -5 41 -33 37 -106 -18 -86 -65 -203 -126 -278 -146 -68 -18
-192 -20 -249 -4 -36 10 -85 44 -85 58 0 3 27 24 61 45 51 33 60 43 57 65 -2
20 -9 27 -30 29 -42 5 -138 -52 -138 -83 0 -14 -91 -67 -166 -95 -70 -27 -227
-38 -290 -21 -46 12 -94 46 -94 65 0 7 22 25 49 39 57 32 74 49 69 74 -7 40
-120 12 -151 -38 -6 -11 -64 -61 -127 -112 -63 -51 -168 -144 -233 -207 -64
-63 -115 -108 -112 -99 17 51 35 162 35 216 0 60 1 62 43 94 112 86 142 135
98 159 -11 5 -70 10 -130 10 l-111 0 -140 -70 c-169 -85 -277 -129 -336 -137
l-43 -6 9 32 c5 18 22 59 39 92 16 33 27 67 24 75 -6 17 3 17 -85 -1 -99 -21
-248 -22 -317 -1 -67 20 -100 20 -107 2 -8 -21 -145 -113 -217 -146 -90 -40
-161 -53 -263 -48 -98 5 -150 24 -163 61 -12 32 -4 44 42 62 52 21 77 42 77
67 0 29 -67 24 -121 -10 -51 -33 -218 -110 -326 -152 l-75 -29 6 38 c17 110
54 201 120 299 84 126 171 295 187 367 17 77 4 119 -38 123 -28 3 -35 -2 -59
-40z"/>
<path d="M2308 1528 c-39 -42 -193 -359 -257 -530 -23 -60 -206 -118 -387
-122 l-120 -2 -55 -57 c-69 -71 -89 -74 -89 -13 0 55 28 92 81 106 36 10 40
14 37 38 -5 46 -37 39 -207 -46 -156 -78 -294 -132 -339 -132 -28 0 -26 11 19
109 29 64 37 101 20 101 -6 0 -40 -7 -76 -15 -94 -22 -235 -22 -321 0 -73 19
-104 16 -104 -9 0 -28 30 -44 101 -56 73 -13 278 -9 311 5 15 6 14 -1 -7 -54
-30 -73 -31 -102 -5 -126 37 -33 116 -17 280 58 l145 66 5 -47 c8 -70 24 -92
66 -92 44 0 68 12 119 60 39 37 42 38 137 43 87 6 251 40 324 67 22 9 25 8 20
-5 -19 -50 -37 -128 -32 -141 13 -34 54 -13 152 77 114 105 151 129 160 104 4
-9 2 -27 -4 -40 -14 -30 -98 -93 -134 -101 -32 -7 -41 -26 -25 -49 12 -15 20
-14 112 5 124 27 235 62 322 101 36 16 67 28 69 26 2 -1 -3 -25 -11 -52 -22
-71 -20 -85 13 -85 20 0 50 21 117 83 116 106 153 133 167 119 22 -22 -2 -62
-63 -107 -34 -25 -70 -45 -80 -45 -26 0 -36 -28 -17 -46 13 -14 29 -12 134 11
110 25 271 78 336 111 37 19 38 19 38 -21 0 -24 9 -45 29 -67 29 -32 31 -33
124 -36 111 -4 229 21 437 94 68 24 125 44 126 44 0 0 6 -18 13 -39 20 -70
109 -111 237 -111 115 0 256 44 382 119 49 29 55 30 69 15 14 -13 37 -15 144
-12 80 2 132 7 140 15 24 24 -3 33 -104 33 -119 0 -141 8 -112 40 15 16 17 25
9 38 -19 29 -37 24 -124 -39 -158 -115 -275 -155 -426 -147 -97 5 -149 24
-163 61 -13 33 4 54 61 75 54 20 69 41 48 67 -15 18 -50 11 -100 -17 -86 -49
-348 -141 -493 -173 -105 -23 -203 -17 -228 13 -14 19 -16 28 -7 60 6 20 17
46 24 57 8 11 14 30 14 42 0 30 -34 31 -75 2 -67 -45 -244 -125 -318 -143
l-28 -7 16 30 c35 68 9 141 -49 141 -37 0 -79 -27 -169 -110 l-58 -53 21 53
c11 29 39 74 61 99 143 162 288 464 265 554 -9 39 -49 47 -83 16 -28 -26 -181
-332 -234 -469 -18 -47 -39 -93 -47 -102 -28 -33 -235 -130 -324 -152 l-28 -6
21 40 c49 93 -29 167 -114 108 -18 -12 -61 -46 -96 -77 -66 -57 -67 -56 -41
15 5 11 27 42 50 69 132 153 270 420 270 525 0 40 -20 70 -47 70 -8 0 -29 -15
-45 -32z"/>
<path d="M3656 1243 c-4 -4 -73 -10 -154 -13 -143 -5 -147 -6 -150 -28 -2 -14
3 -25 14 -29 19 -7 289 12 317 22 24 10 23 55 -1 55 -10 0 -22 -3 -26 -7z"/>
<path d="M409 1053 c-14 -15 -72 -86 -129 -158 -57 -71 -143 -176 -192 -232
-48 -56 -88 -104 -88 -107 0 -3 11 -6 24 -6 36 0 73 35 203 193 64 78 145 172
180 209 52 55 64 73 61 95 -4 37 -28 40 -59 6z"/>
</g>
</svg>
